<svg width="24" height="24" viewBox="0 0 1024 1024" xmlns="http://www.w3.org/2000/svg">
 <g transform="rotate(-90 512 512)">
  <path stroke="#0486ff" fill="#23a9f2" d="m837.146926,640.712257c5.551047,1.974976 9.953597,6.370889 11.995362,11.913569l39.495368,107.668089c2.041765,5.606391 6.380507,9.938592 11.931554,11.97728l107.894441,39.499534a20.098606,20.068309 0 0 1 0,37.588279l-107.830633,39.499534a20.098606,20.068309 0 0 0 -11.995362,11.913569l-39.559176,107.7318a20.098606,20.068309 0 0 1 -37.645006,0l-39.559176,-107.668089a20.098606,20.068309 0 0 0 -11.931554,-11.97728l-107.894441,-39.499534a20.098606,20.068309 0 0 1 0,-37.588279l107.830633,-39.499534a20.098606,20.068309 0 0 0 11.995362,-11.913569l39.559176,-107.7318a20.098606,20.068309 0 0 1 25.713451,-11.97728l0,0.063711"/>
  <path stroke="#23a9f2" fill="#0486ff" d="m402.465908,1.769711a40.197223,40.136629 0 0 1 23.926916,23.890849l78.990726,215.4636a40.197223,40.136629 0 0 0 23.926916,23.890849l215.725084,78.871655a40.197223,40.136629 0 0 1 0,75.431374l-215.725084,78.871655a40.197223,40.136629 0 0 0 -23.926916,23.890849l-78.990726,215.399899a40.197223,40.136629 0 0 1 -75.545252,0l-78.990726,-215.399899a40.197223,40.136629 0 0 0 -23.926916,-23.890849l-215.725075,-78.871655a40.197223,40.136629 0 0 1 0,-75.431374l215.725075,-78.871655a40.197223,40.136629 0 0 0 23.926916,-23.890849l78.990726,-215.399889a40.197223,40.136629 0 0 1 51.618336,-23.890849l0,-0.063711z"/>
 </g>
</svg>